<?xml version="1.0" encoding="utf-8"?>
<!-- Generator: Adobe Illustrator 22.0.0, SVG Export Plug-In . SVG Version: 6.00 Build 0)  -->
<svg version="1.1" id="Layer_1" xmlns="http://www.w3.org/2000/svg" xmlns:xlink="http://www.w3.org/1999/xlink" x="0px" y="0px"
	 viewBox="0 0 24 24" style="enable-background:new 0 0 24 24;" xml:space="preserve">
<g>
	<path d="M22.042,9.92c-0.15-0.05-0.31,0.04-0.39,0.2c-0.11,0.24-0.2,0.48-0.28,0.73c-0.45,1.26-0.9,2.52-1.22,3.82
		c-0.06,0.24-0.22,0.36-0.42,0.45c-0.25,0.12-0.51,0.23-0.76,0.34c-0.3,0.13-0.6,0.24-0.91,0.35c-0.66,0.23-1.34,0.42-2.04,0.54
		c-0.12,0.02-0.23,0.05-0.38,0.08c0.05-0.08,0.07-0.12,0.11-0.16c0.4-0.52,0.8-1.04,1.2-1.55c0.19-0.23,0.38-0.46,0.57-0.69
		c0.26-0.32,0.51-0.65,0.71-1.01c0.04-0.04,0.06-0.09,0.09-0.14c0.04-0.08,0.09-0.07,0.15-0.05c0.2,0.04,0.37,0.01,0.51-0.15
		c0.1-0.12,0.18-0.26,0.23-0.4c0.15-0.4-0.09-0.73-0.51-0.78c-0.3-0.04-0.52,0.05-0.75,0.22c-0.01,0.01-0.02,0.01-0.02,0.02
		c-0.27,0.19-0.38,0.37-0.24,0.67c0.12,0.27,0.02,0.4-0.15,0.54c-0.01,0.01-0.03,0.03-0.04,0.04c-0.07,0.08-0.14,0.16-0.2,0.24
		c-0.77,0.9-1.53,1.79-2.29,2.69c-0.09,0.11-0.18,0.23-0.32,0.33c0-0.18,0.01-0.35-0.01-0.51c-0.08-1.17-0.17-2.34-0.26-3.51
		c-0.01-0.11,0.01-0.17,0.1-0.23c0.21-0.14,0.42-0.28,0.62-0.44c0.53-0.41,1.05-0.82,1.56-1.25c0.27-0.22,0.55-0.45,0.82-0.67
		c0.38-0.31,0.76-0.62,1.14-0.92c0.11-0.09,0.21-0.18,0.29-0.29c0.06-0.08,0.09-0.16,0.04-0.24c-0.06-0.09-0.15-0.13-0.26-0.11
		c-0.06,0.01-0.12,0.04-0.18,0.06c-0.42,0.17-0.79,0.41-1.15,0.68c-0.21-1.53-0.28-3.07-0.22-4.62c0.03-0.8,0.04-1.59,0.03-2.39
		c0-0.1,0-0.19,0.09-0.28c0.12-0.13,0.05-0.27-0.14-0.31c-0.52-0.11-1.03-0.06-1.54,0.03c-2.59,0.43-5.19,0.59-7.82,0.34
		c-0.97-0.09-1.95-0.22-2.92-0.4c-0.57-0.11-1.01,0.37-0.84,0.89c0.04,0.12,0.13,0.19,0.21,0.3c-0.53,0.22-1.07,0.37-1.63,0.49
		c-0.65,0.14-1.3,0.22-1.97,0.27c-0.26,0.02-0.49,0.1-0.59,0.35c-0.11,0.26-0.03,0.48,0.12,0.72c0.24,0.4,0.66,0.52,1.01,0.76
		c0.08,0.05,0.16,0.09,0.19,0.2c0.3,1.02,0.8,1.96,1.26,2.91c1.28,2.62,2.12,5.37,2.52,8.25c0.26,1.88,0.3,3.76,0.22,5.65
		c-0.02,0.54,0.23,0.84,0.71,0.86c0.52,0.03,0.85-0.29,0.87-0.82c0.08-1.93-0.01-3.86-0.32-5.77c-0.31-1.93-0.85-3.79-1.63-5.58
		c-0.69-1.6-1.43-3.16-2.31-4.66c-0.08-0.15-0.17-0.28-0.29-0.47c0.5,0.19,0.95,0.36,1.39,0.54c0.39,0.16,0.78,0.33,1.15,0.54
		c0.24,0.13,0.47,0.12,0.7-0.02c0.22-0.14,0.26-0.35,0.24-0.59c-0.08-1.04-0.18-2.09-0.21-3.14c0-0.18,0.02-0.24,0.21-0.21
		c2.11,0.29,4.22,0.35,6.34,0.16c1.48-0.13,2.94-0.38,4.38-0.8c-0.04,0.3-0.09,0.61-0.13,0.91c-0.18,1.38-0.2,2.77-0.12,4.16
		c0.05,0.78,0.12,1.57,0.22,2.35c-0.95,0.7-1.92,1.35-2.96,1.91c-0.22,0.11-0.31,0.29-0.3,0.55c0.05,1.63,0.16,3.26,0.23,4.89
		c0,0.19,0.01,0.39,0.08,0.56c0.22,0.58,0.7,0.62,1.09,0.28c0.08-0.06,0.16-0.1,0.26-0.11c1.16-0.14,2.28-0.41,3.38-0.8
		c0.14,0.43,0.28,0.85,0.43,1.27c0.08,0.24,0.16,0.48,0.24,0.72c0.01,0.01,0,0.03,0,0.07c-0.3-0.07-0.6-0.14-0.91-0.19
		c-2.27-0.43-4.51-0.26-6.73,0.32c-1.2,0.32-2.35,0.77-3.45,1.33c-0.39,0.19-0.51,0.52-0.33,0.89c0.19,0.38,0.59,0.53,0.96,0.35
		c0.61-0.3,1.22-0.58,1.86-0.81c2.07-0.73,4.2-1,6.38-0.76c1.01,0.11,2.01,0.3,2.99,0.53c0.3,0.07,0.57,0.06,0.78-0.2
		c0.2-0.25,0.16-0.52,0.02-0.79c-0.49-1.02-0.93-2.05-1.32-3.1c0.38-0.15,0.75-0.33,1.12-0.5c0.43-0.2,0.67-0.51,0.67-1
		c0-0.26,0.05-0.51,0.11-0.76c0.19-0.73,0.43-1.45,0.65-2.17c0.16-0.54,0.31-1.09,0.38-1.65C22.242,10.07,22.182,9.96,22.042,9.92z
		 M4.382,5.16c-0.88-0.32-1.77-0.65-2.68-0.92C1.562,4.2,1.412,4.2,1.262,4.1c1.03-0.45,2-0.97,3-1.48c0.11,0.82,0.2,1.61,0.31,2.39
		C4.602,5.19,4.572,5.23,4.382,5.16z"/>
	<path d="M23.852,8.15c0.27-0.74,0.15-1.1-0.42-1.52c-0.04-0.03-0.08-0.06-0.13-0.09c-0.42-0.27-0.86-0.53-1.26-0.84
		c-0.29-0.24-0.59-0.46-0.95-0.59c-0.29-0.11-0.57-0.03-0.72,0.26c-0.23,0.42-0.51,0.82-0.73,1.25c-0.05,0.1-0.08,0.13-0.19,0.05
		c-0.4-0.26-0.72-0.25-1.1,0.04c-0.12,0.1-0.23,0.2-0.33,0.3c-0.2,0.21-0.2,0.55-0.01,0.78c0.16,0.19,0.37,0.21,0.64,0.04
		c0.04-0.02,0.09-0.04,0.12-0.07c0.1-0.09,0.18-0.08,0.28,0c1.09,0.86,2.27,1.56,3.49,2.19c0.07,0.03,0.1,0.06,0.08,0.14
		c-0.03,0.11,0,0.21,0.04,0.31c0.06,0.15,0.15,0.18,0.27,0.06c0.12-0.13,0.23-0.27,0.35-0.41c0.17-0.19,0.16-0.35-0.06-0.48
		c-0.12-0.08-0.11-0.13-0.04-0.24C23.442,8.93,23.712,8.53,23.852,8.15z M22.742,7.76c-0.14,0.3-0.32,0.62-0.51,0.94
		c-0.06,0.12-0.12,0.03-0.17-0.01c-0.47-0.36-0.94-0.72-1.41-1.08c-0.15-0.11-0.29-0.23-0.44-0.35c-0.06-0.05-0.09-0.09-0.02-0.15
		c0.22-0.24,0.4-0.51,0.59-0.76c0.09-0.12,0.18-0.13,0.29-0.04c0.5,0.41,1.03,0.78,1.55,1.16C22.692,7.52,22.832,7.58,22.742,7.76z"
		/>
	<path d="M13.603,7.397c0.523-0.12,1.041-0.266,1.558-0.411c0.32-0.089,0.475-0.384,0.39-0.704
		c-0.072-0.272-0.284-0.388-0.618-0.308c-0.561,0.133-1.124,0.263-1.677,0.425c-1.646,0.48-3.289,0.966-4.95,1.395
		C7.604,7.975,6.919,8.219,6.26,8.529c-0.14,0.066-0.216,0.165-0.168,0.32c0.045,0.146,0.166,0.136,0.292,0.127
		c0.474-0.034,0.941-0.114,1.627-0.238C9.726,8.306,11.662,7.842,13.603,7.397z"/>
	<path d="M6.906,12.025c0.858-0.224,1.697-0.431,2.528-0.664c0.941-0.264,1.877-0.547,2.799-0.874
		c0.273-0.097,0.327-0.299,0.259-0.55c-0.068-0.252-0.234-0.388-0.503-0.367c-0.082,0.006-0.162,0.037-0.242,0.059
		c-1.704,0.476-3.364,1.083-5.024,1.688c-0.221,0.08-0.38,0.201-0.308,0.457C6.487,12.034,6.679,12.1,6.906,12.025z"/>
	<path d="M11.416,13.926c0.244-0.094,0.313-0.314,0.301-0.537c-0.048-0.284-0.273-0.471-0.539-0.438
		c-0.173,0.021-0.344,0.078-0.51,0.133c-0.718,0.238-1.395,0.569-2.078,0.892c-0.533,0.252-1.097,0.441-1.65,0.651
		c-0.131,0.05-0.232,0.116-0.194,0.268c0.036,0.147,0.148,0.223,0.302,0.218c0.072-0.002,0.143-0.024,0.215-0.032
		c0.816-0.096,1.586-0.393,2.394-0.537C10.261,14.434,10.835,14.149,11.416,13.926z"/>
</g>
</svg>
